<svg xmlns="http://www.w3.org/2000/svg" version="1.1" xmlns:xlink="http://www.w3.org/1999/xlink" width="150" height="117"><svg xmlns="http://www.w3.org/2000/svg" version="1.1" xmlns:xlink="http://www.w3.org/1999/xlink" width="150" height="117"><svg width="150" height="117" viewBox="0 0 150 117" fill="none" xmlns="http://www.w3.org/2000/svg">
<path d="M0 0H150V56H0V0Z" fill="#D32F2F"></path>
<path d="M0 61H150V117H0V61Z" fill="white"></path>
<path d="M17 104.438L28.0531 86.2344L26.3023 92.6047V89.0188L17.0211 74H26.0703L31.6391 84.2937H35.225L30.2258 87.3523L37.3977 74H46.025L36.3219 89.1031V92.6891L34.5078 86.3398L45.9195 104.438H37.2289L31.3227 94.5664H27.7367L32.8625 91.6133L25.2477 104.438H17Z" fill="black"></path>
<path d="M55.0135 104.438V74H68.1971C70.658 74 72.7463 74.3938 74.4619 75.1813C76.1775 75.9688 77.4853 77.1148 78.3853 78.6195C79.2853 80.1242 79.7353 81.9523 79.7353 84.1039V84.1461C79.7353 86.1008 79.2642 87.8586 78.3221 89.4195C77.3799 90.9805 76.1213 92.1125 74.5463 92.8156L80.6213 104.438H71.9096L66.6994 93.9547C66.6572 93.9547 66.601 93.9547 66.5307 93.9547C66.4744 93.9547 66.4111 93.9547 66.3408 93.9547H62.7549V104.438H55.0135ZM62.7549 88.3438H67.3322C68.7103 88.3438 69.8002 87.9641 70.6017 87.2047C71.4174 86.4313 71.8252 85.4047 71.8252 84.125V84.0828C71.8252 82.8031 71.4103 81.7766 70.5807 81.0031C69.751 80.2297 68.6541 79.843 67.29 79.843H62.7549V88.3438Z" fill="black"></path>
<path d="M80.6331 104.438L90.8847 74H98.0143V80.6234H95.5464L88.7753 104.438H80.6331ZM86.6237 97.7727L88.3534 92.1828H102.908L104.638 97.7727H86.6237ZM102.486 104.438L95.694 80.6234V74H100.377L110.628 104.438H102.486Z" fill="black"></path>
<path d="M116.61 104.438V93.9969L106.126 74H114.374L120.407 86.6562H120.575L126.587 74H134.856L124.351 93.9969V104.438H116.61Z" fill="black"></path>
<path d="M30.2289 19.3195L24.4281 30.7102H31.2414L30.3977 19.3195H30.2289ZM32.0641 42.9656L31.5578 36.2789H21.6227L18.1844 42.9656H10L26.9594 12.5273H36.4305L39.932 42.9656H32.0641Z" fill="white"></path>
<path d="M54.2665 42.9656H44.7954L41.2938 12.5273H49.7946L50.997 34.9078H51.1446L61.6915 12.5273H70.4454L54.2665 42.9656Z" fill="white"></path>
<path d="M83.1978 18.2859C82.0025 18.2859 80.8846 18.5883 79.8439 19.193C78.8033 19.7977 77.8892 20.6414 77.1017 21.7242C76.3142 22.793 75.7025 24.0375 75.2666 25.4578C74.8307 26.8641 74.6127 28.3828 74.6127 30.0141C74.6127 31.4625 74.8517 32.7281 75.3299 33.8109C75.8221 34.8937 76.5111 35.7305 77.3971 36.3211C78.2971 36.9117 79.3517 37.207 80.5611 37.207C81.7564 37.207 82.8744 36.9047 83.915 36.3C84.9697 35.6953 85.8838 34.8586 86.6572 33.7898C87.4447 32.707 88.0564 31.4555 88.4924 30.0352C88.9424 28.6148 89.1674 27.0961 89.1674 25.4789C89.1674 24.0023 88.9213 22.7297 88.4291 21.6609C87.9369 20.5781 87.2408 19.7484 86.3408 19.1719C85.4549 18.5813 84.4072 18.2859 83.1978 18.2859ZM80.3502 43.493C77.5377 43.493 75.1119 42.9305 73.0728 41.8055C71.0338 40.6805 69.4658 39.1406 68.3689 37.1859C67.2861 35.2172 66.7447 32.9742 66.7447 30.457C66.7447 27.743 67.1666 25.2609 68.0103 23.0109C68.8682 20.7469 70.0494 18.7992 71.5541 17.168C73.0728 15.5227 74.8377 14.25 76.8486 13.35C78.8736 12.45 81.0463 12 83.3666 12C86.2494 12 88.7033 12.5695 90.7283 13.7086C92.7674 14.8336 94.3213 16.3734 95.39 18.3281C96.4728 20.2828 97.0142 22.5187 97.0142 25.0359C97.0142 27.7641 96.5853 30.2602 95.7275 32.5242C94.8838 34.7742 93.6955 36.7219 92.1627 38.3672C90.6439 39.9984 88.8721 41.2641 86.8471 42.1641C84.8361 43.05 82.6705 43.493 80.3502 43.493Z" fill="white"></path>
<path d="M104.092 42.9656H96.3511L102.827 12.5273H110.568L104.092 42.9656Z" fill="white"></path>
<path d="M114.145 12.5273H125.894C128.327 12.5273 130.464 12.9984 132.307 13.9406C134.163 14.8688 135.604 16.2117 136.631 17.9695C137.671 19.7273 138.192 21.8508 138.192 24.3398C138.192 27.068 137.805 29.5641 137.032 31.8281C136.272 34.0922 135.175 36.0609 133.741 37.7344C132.321 39.3937 130.619 40.6805 128.636 41.5945C126.653 42.5086 124.46 42.9656 122.055 42.9656H107.669L114.145 12.5273ZM120.621 18.7289L116.803 36.7641H121C122.35 36.7641 123.588 36.4969 124.713 35.9625C125.838 35.4281 126.808 34.6617 127.624 33.6633C128.453 32.6648 129.093 31.4625 129.543 30.0562C130.007 28.65 130.239 27.068 130.239 25.3102C130.239 23.9461 130 22.7719 129.522 21.7875C129.044 20.8031 128.348 20.0508 127.434 19.5305C126.534 18.9961 125.43 18.7289 124.122 18.7289H120.621Z" fill="white"></path>
</svg></svg><style>@media (prefers-color-scheme: light) { :root { filter: none; } }
@media (prefers-color-scheme: dark) { :root { filter: none; } }
</style></svg>