<svg fill="none" height="256" viewBox="0 0 256 256" width="256" xmlns="http://www.w3.org/2000/svg" xmlns:xlink="http://www.w3.org/1999/xlink"><filter id="a" color-interpolation-filters="sRGB" filterUnits="userSpaceOnUse" height="268" width="268" x="-6" y="-6"><feFlood flood-opacity="0" result="BackgroundImageFix"/><feBlend in="SourceGraphic" in2="BackgroundImageFix" mode="normal" result="shape"/><feColorMatrix in="SourceAlpha" result="hardAlpha" type="matrix" values="0 0 0 0 0 0 0 0 0 0 0 0 0 0 0 0 0 0 127 0"/><feOffset dx="6" dy="6"/><feGaussianBlur stdDeviation="4"/><feComposite in2="hardAlpha" k2="-1" k3="1" operator="arithmetic"/><feColorMatrix type="matrix" values="0 0 0 0 1 0 0 0 0 1 0 0 0 0 1 0 0 0 0.2 0"/><feBlend in2="shape" mode="normal" result="effect1_innerShadow"/><feColorMatrix in="SourceAlpha" result="hardAlpha" type="matrix" values="0 0 0 0 0 0 0 0 0 0 0 0 0 0 0 0 0 0 127 0"/><feOffset dx="-6" dy="-6"/><feGaussianBlur stdDeviation="4"/><feComposite in2="hardAlpha" k2="-1" k3="1" operator="arithmetic"/><feColorMatrix type="matrix" values="0 0 0 0 0 0 0 0 0 0 0 0 0 0 0 0 0 0 0.05 0"/><feBlend in2="effect1_innerShadow" mode="normal" result="effect2_innerShadow"/></filter><filter id="b" color-interpolation-filters="sRGB" filterUnits="userSpaceOnUse" height="192.717" width="128" x="64" y="42.3677"><feFlood flood-opacity="0" result="BackgroundImageFix"/><feColorMatrix in="SourceAlpha" type="matrix" values="0 0 0 0 0 0 0 0 0 0 0 0 0 0 0 0 0 0 127 0"/><feOffset dy="12"/><feGaussianBlur stdDeviation="8"/><feColorMatrix type="matrix" values="0 0 0 0 0 0 0 0 0 0 0 0 0 0 0 0 0 0 0.25 0"/><feBlend in2="BackgroundImageFix" mode="normal" result="effect1_dropShadow"/><feColorMatrix in="SourceAlpha" type="matrix" values="0 0 0 0 0 0 0 0 0 0 0 0 0 0 0 0 0 0 127 0"/><feOffset dy="4"/><feGaussianBlur stdDeviation="4"/><feColorMatrix type="matrix" values="0 0 0 0 0 0 0 0 0 0 0 0 0 0 0 0 0 0 0.125 0"/><feBlend in2="effect1_dropShadow" mode="normal" result="effect2_dropShadow"/><feBlend in="SourceGraphic" in2="effect2_dropShadow" mode="normal" result="shape"/><feColorMatrix in="SourceAlpha" result="hardAlpha" type="matrix" values="0 0 0 0 0 0 0 0 0 0 0 0 0 0 0 0 0 0 127 0"/><feOffset dy="-2"/><feGaussianBlur stdDeviation="3"/><feComposite in2="hardAlpha" k2="-1" k3="1" operator="arithmetic"/><feColorMatrix type="matrix" values="0 0 0 0 0 0 0 0 0 0 0 0 0 0 0 0 0 0 0.125 0"/><feBlend in2="shape" mode="normal" result="effect3_innerShadow"/><feColorMatrix in="SourceAlpha" result="hardAlpha" type="matrix" values="0 0 0 0 0 0 0 0 0 0 0 0 0 0 0 0 0 0 127 0"/><feOffset dy="-2"/><feGaussianBlur stdDeviation="3"/><feComposite in2="hardAlpha" k2="-1" k3="1" operator="arithmetic"/><feColorMatrix type="matrix" values="0 0 0 0 0.92549 0 0 0 0 0.215686 0 0 0 0 0.313726 0 0 0 0.5 0"/><feBlend in2="effect3_innerShadow" mode="normal" result="effect4_innerShadow"/></filter><radialGradient id="c" cx="0" cy="0" gradientTransform="matrix(128.00001752 210.000047 -210.000047 128.00001752 0 0)" gradientUnits="userSpaceOnUse" r="1"><stop offset="0" stop-color="#ff8c37"/><stop offset="1" stop-color="#ec3750"/></radialGradient><clipPath id="d"><path d="m0 0h256v256h-256z" transform="matrix(0 1 -1 0 256 0)"/></clipPath><mask id="e" height="256" maskUnits="userSpaceOnUse" width="256" x="0" y="0"><path clip-rule="evenodd" d="m128 256c102.4 0 128-25.6 128-128s-25.6-128-128-128-128 25.6-128 128 25.6 128 128 128z" fill="#000" fill-rule="evenodd"/></mask><g clip-path="url(#d)"><g mask="url(#e)"><g filter="url(#a)"><path clip-rule="evenodd" d="m128 256c102.4 0 128-25.6 128-128s-25.6-128-128-128-128 25.6-128 128 25.6 128 128 128z" fill="url(#c)" fill-rule="evenodd"/></g><g filter="url(#b)"><path d="m115.103 48.3682c0-1.2383-1.114-2.179-2.334-1.9717l-31.1038 5.2812c-.9616.1632-1.6652.9964-1.6652 1.9717v151.4356c0 1.104.8954 2 2 2h31.103c1.105 0 2-.896 2-2v-56.688c0-17.27 9.158-27.968 16.789-27.968 6.868 0 8.852 6.878 8.852 17.27v67.386c0 1.104.895 2 2 2h31.256c1.105 0 2-.896 2-2v-72.429c0-23.536-8.852-38.6668-31.898-38.6668-9.25 0-18.277 2.2271-25.469 7.1568-1.428.979-3.53.015-3.53-1.7176z" fill="#fff"/></g></g></g></svg>