<?xml version="1.0" encoding="UTF-8"?>
<svg version="1.1" xmlns="http://www.w3.org/2000/svg" width="1024" height="1024">
<path d="M0 0 C337.92 0 675.84 0 1024 0 C1024 337.92 1024 675.84 1024 1024 C686.08 1024 348.16 1024 0 1024 C0 686.08 0 348.16 0 0 Z " fill="#000000" transform="translate(0,0)"/>
<path d="M0 0 C3.81616598 3.36814874 7.50351739 6.85801292 11.15283203 10.40527344 C11.67603027 10.90800781 12.19922852 11.41074219 12.73828125 11.92871094 C19.41112074 18.35486128 25.6343133 24.94203685 31.15283203 32.40527344 C31.59594727 32.99904785 32.0390625 33.59282227 32.49560547 34.20458984 C40.34509874 44.78331575 47.12710651 55.69438526 53.15283203 67.40527344 C53.54599609 68.16565918 53.93916016 68.92604492 54.34423828 69.70947266 C81.49303872 122.85347352 83.44729509 183.45030521 65.59057617 239.80883789 C55.73148675 269.76011903 39.87977365 296.49965506 18.15283203 319.40527344 C16.97991118 320.7749423 15.81279895 322.14961676 14.65283203 323.53027344 C10.53392985 328.25264268 5.87870647 332.30419815 1.15283203 336.40527344 C-0.29929687 337.70658203 -0.29929687 337.70658203 -1.78076172 339.03417969 C-39.8867504 372.75378058 -92.27315417 389.90761619 -142.65966797 389.78027344 C-143.51166779 389.77939728 -144.3636676 389.77852112 -145.2414856 389.77761841 C-168.79561338 389.69813935 -190.4880479 385.83182987 -212.84716797 378.40527344 C-213.60175293 378.15519531 -214.35633789 377.90511719 -215.13378906 377.64746094 C-232.92638218 371.62420691 -249.25274937 363.08135266 -264.87695312 352.70751953 C-266.1480969 351.86733602 -267.42854444 351.04098461 -268.71972656 350.23193359 C-270.12878817 349.34020066 -271.49403595 348.37978664 -272.84716797 347.40527344 C-272.84716797 346.74527344 -272.84716797 346.08527344 -272.84716797 345.40527344 C-273.39759766 345.16164063 -273.94802734 344.91800781 -274.51513672 344.66699219 C-282.24345781 340.48567274 -288.81580687 333.72460403 -294.84716797 327.40527344 C-296.05373047 326.19871094 -296.05373047 326.19871094 -297.28466797 324.96777344 C-298.13029297 324.12214844 -298.97591797 323.27652344 -299.84716797 322.40527344 C-300.38470703 321.91414063 -300.92224609 321.42300781 -301.47607422 320.91699219 C-339.08042903 285.51080426 -361.109059 227.74208384 -362.94482422 176.68945312 C-363.07831358 170.2574909 -363.00068453 163.83605606 -362.84716797 157.40527344 C-362.82009766 155.64376953 -362.82009766 155.64376953 -362.79248047 153.84667969 C-360.86077695 108.33801729 -341.00821975 61.97819609 -311.84716797 27.40527344 C-311.38133301 26.8506543 -310.91549805 26.29603516 -310.43554688 25.72460938 C-308.86956902 23.86373635 -307.2973866 22.00832933 -305.72216797 20.15527344 C-304.9855896 19.28684814 -304.9855896 19.28684814 -304.23413086 18.40087891 C-300.93335358 14.55319783 -297.5526045 10.86927926 -293.84716797 7.40527344 C-293.18716797 7.40527344 -292.52716797 7.40527344 -291.84716797 7.40527344 C-291.51716797 6.41527344 -291.18716797 5.42527344 -290.84716797 4.40527344 C-287.4345167 1.11373923 -283.60873264 -1.71405994 -279.84716797 -4.59472656 C-279.18942383 -5.09891113 -278.53167969 -5.6030957 -277.85400391 -6.12255859 C-267.03951897 -14.33485505 -255.94199923 -21.4247369 -243.84716797 -27.59472656 C-243.08291504 -27.98644043 -242.31866211 -28.3781543 -241.53125 -28.78173828 C-163.04501267 -68.55794006 -66.73446992 -57.61426877 0 0 Z " fill="#000000" transform="translate(580.84716796875,330.5947265625)"/>
<path d="M0 0 C3.81616598 3.36814874 7.50351739 6.85801292 11.15283203 10.40527344 C11.67603027 10.90800781 12.19922852 11.41074219 12.73828125 11.92871094 C19.41112074 18.35486128 25.6343133 24.94203685 31.15283203 32.40527344 C31.59594727 32.99904785 32.0390625 33.59282227 32.49560547 34.20458984 C40.34509874 44.78331575 47.12710651 55.69438526 53.15283203 67.40527344 C53.54599609 68.16565918 53.93916016 68.92604492 54.34423828 69.70947266 C81.49303872 122.85347352 83.44729509 183.45030521 65.59057617 239.80883789 C55.73148675 269.76011903 39.87977365 296.49965506 18.15283203 319.40527344 C16.97991118 320.7749423 15.81279895 322.14961676 14.65283203 323.53027344 C10.53392985 328.25264268 5.87870647 332.30419815 1.15283203 336.40527344 C-0.29929687 337.70658203 -0.29929687 337.70658203 -1.78076172 339.03417969 C-39.8867504 372.75378058 -92.27315417 389.90761619 -142.65966797 389.78027344 C-143.51166779 389.77939728 -144.3636676 389.77852112 -145.2414856 389.77761841 C-168.79561338 389.69813935 -190.4880479 385.83182987 -212.84716797 378.40527344 C-213.60175293 378.15519531 -214.35633789 377.90511719 -215.13378906 377.64746094 C-232.92638218 371.62420691 -249.25274937 363.08135266 -264.87695312 352.70751953 C-266.1480969 351.86733602 -267.42854444 351.04098461 -268.71972656 350.23193359 C-270.12878817 349.34020066 -271.49403595 348.37978664 -272.84716797 347.40527344 C-272.84716797 346.74527344 -272.84716797 346.08527344 -272.84716797 345.40527344 C-273.39759766 345.16164063 -273.94802734 344.91800781 -274.51513672 344.66699219 C-282.24345781 340.48567274 -288.81580687 333.72460403 -294.84716797 327.40527344 C-296.05373047 326.19871094 -296.05373047 326.19871094 -297.28466797 324.96777344 C-298.13029297 324.12214844 -298.97591797 323.27652344 -299.84716797 322.40527344 C-300.38470703 321.91414063 -300.92224609 321.42300781 -301.47607422 320.91699219 C-339.08042903 285.51080426 -361.109059 227.74208384 -362.94482422 176.68945312 C-363.07831358 170.2574909 -363.00068453 163.83605606 -362.84716797 157.40527344 C-362.82009766 155.64376953 -362.82009766 155.64376953 -362.79248047 153.84667969 C-360.86077695 108.33801729 -341.00821975 61.97819609 -311.84716797 27.40527344 C-311.38133301 26.8506543 -310.91549805 26.29603516 -310.43554688 25.72460938 C-308.86956902 23.86373635 -307.2973866 22.00832933 -305.72216797 20.15527344 C-304.9855896 19.28684814 -304.9855896 19.28684814 -304.23413086 18.40087891 C-300.93335358 14.55319783 -297.5526045 10.86927926 -293.84716797 7.40527344 C-293.18716797 7.40527344 -292.52716797 7.40527344 -291.84716797 7.40527344 C-291.51716797 6.41527344 -291.18716797 5.42527344 -290.84716797 4.40527344 C-287.4345167 1.11373923 -283.60873264 -1.71405994 -279.84716797 -4.59472656 C-279.18942383 -5.09891113 -278.53167969 -5.6030957 -277.85400391 -6.12255859 C-267.03951897 -14.33485505 -255.94199923 -21.4247369 -243.84716797 -27.59472656 C-243.08291504 -27.98644043 -242.31866211 -28.3781543 -241.53125 -28.78173828 C-163.04501267 -68.55794006 -66.73446992 -57.61426877 0 0 Z M-244.84716797 33.40527344 C-246.25675781 34.48035156 -246.25675781 34.48035156 -247.69482422 35.57714844 C-265.70705875 49.77960099 -279.78371757 67.38304514 -290.84716797 87.40527344 C-291.44916016 88.46230469 -292.05115234 89.51933594 -292.67138672 90.60839844 C-313.60038771 129.55044973 -315.96506715 177.00470027 -303.78466797 218.90527344 C-295.76513647 244.9525689 -281.50091414 267.71024957 -262.84716797 287.40527344 C-262.39035645 287.89995117 -261.93354492 288.39462891 -261.46289062 288.90429688 C-233.64403515 318.9113597 -191.9058457 336.89313646 -151.22998047 338.78808594 C-109.63388848 339.89486226 -69.33661797 327.6773179 -36.84716797 301.40527344 C-35.85845703 300.61894531 -34.86974609 299.83261719 -33.85107422 299.02246094 C-29.28882923 295.35085342 -24.83309976 291.71207631 -20.84716797 287.40527344 C-20.84716797 286.74527344 -20.84716797 286.08527344 -20.84716797 285.40527344 C-20.18716797 285.40527344 -19.52716797 285.40527344 -18.84716797 285.40527344 C0.55009387 267.70456511 13.62590104 239.94624017 21.02783203 215.28027344 C21.31424561 214.33982178 21.60065918 213.39937012 21.89575195 212.43041992 C25.96010196 198.18380358 26.53592039 183.80063187 26.46533203 169.09277344 C26.46317688 168.28067413 26.46102173 167.46857483 26.45880127 166.63186646 C26.40795794 154.67971728 26.11393796 143.04750126 23.15283203 131.40527344 C22.95415527 130.60992187 22.75547852 129.81457031 22.55078125 128.99511719 C12.4915694 89.99400817 -10.77756288 56.5030443 -42.84716797 32.40527344 C-43.69150391 31.76589844 -44.53583984 31.12652344 -45.40576172 30.46777344 C-104.36760081 -12.48587663 -187.34398747 -11.10405479 -244.84716797 33.40527344 Z " fill="#FEFDFD" transform="translate(580.84716796875,330.5947265625)"/>
<path d="M0 0 C1.07765625 -0.0515625 2.1553125 -0.103125 3.265625 -0.15625 C11.38830363 1.37358185 16.36230846 7.89839793 20.875 14.375 C21.69242676 15.53044312 21.69242676 15.53044312 22.52636719 16.70922852 C33.11986279 31.98598975 42.16048158 48.27788585 49.73657227 65.24389648 C50.46177431 66.85834893 51.20084701 68.4665991 51.94897461 70.07055664 C60.19526103 87.82678845 66.06027655 106.52354172 70.75 125.5 C70.97139648 126.35577637 71.19279297 127.21155273 71.42089844 128.09326172 C78.63702715 156.20013603 80.1214583 184.79216976 80.1875 213.6875 C80.1936734 214.82848145 80.1998468 215.96946289 80.20620728 217.14501953 C80.43206511 281.97730683 62.13370578 345.64002245 28.35302734 400.86425781 C26.84798533 403.33888979 25.38170349 405.8321885 23.92578125 408.3359375 C19.31231063 416.16095723 15.06373908 422.34313046 6.75 426.5 C-0.69945919 427.1895554 -6.248915 427.15390266 -12.25 422.5 C-16.82017714 418.03980039 -19.26269635 413.68455477 -19.6875 407.3125 C-19.54681659 400.83024141 -16.47086268 395.20283714 -12.4140625 390.265625 C9.68947606 362.01778149 22.1946823 323.69838031 30.75 289.5 C30.95608887 288.70207031 31.16217773 287.90414063 31.37451172 287.08203125 C32.70090514 281.9201019 33.77050135 276.73792253 34.75 271.5 C34.93191895 270.59846191 35.11383789 269.69692383 35.30126953 268.76806641 C38.9696619 249.92375496 39.17722319 231.08065874 39.25 211.9375 C39.26035278 210.70170197 39.27070557 209.46590393 39.28137207 208.19265747 C39.46511757 180.32220486 35.54745521 153.50100262 28.75 126.5 C28.53150391 125.62649902 28.31300781 124.75299805 28.08789062 123.85302734 C19.93177441 92.16337887 4.68776699 61.5061419 -14.1875 34.875 C-18.73923766 28.42312657 -21.46104786 23.52829477 -20.25 15.5 C-18.1400537 8.84830489 -14.34378026 5.00966529 -8.453125 1.3984375 C-5.56794977 0.22185895 -3.11207581 0.08849505 0 0 Z " fill="#FDFDFD" transform="translate(726.25,287.5)"/>
<path d="M0 0 C0.74121094 0.06703125 1.48242188 0.1340625 2.24609375 0.203125 C8.08086553 1.58064279 11.03274491 5.16128343 14.1875 10 C14.61135986 10.64549805 15.03521973 11.29099609 15.47192383 11.95605469 C30.38343796 35.45496682 38.5959661 61.80140954 44.5625 88.75 C44.90571289 90.22146484 44.90571289 90.22146484 45.25585938 91.72265625 C48.8969167 107.83293449 48.95037433 124.00014387 49 140.4375 C49.00953201 142.05460373 49.00953201 142.05460373 49.01925659 143.70437622 C49.09380167 164.07028495 47.18706868 183.87293546 42.375 203.6875 C42.07384277 204.94546387 41.77268555 206.20342773 41.46240234 207.49951172 C36.73225181 226.72379584 30.23927101 244.96223517 21.5625 262.75 C21.0360791 263.84755615 21.0360791 263.84755615 20.49902344 264.96728516 C16.8847835 272.43886772 13.65935339 279.01876441 6.5625 283.75 C0.57289198 285.74653601 -6.15897055 285.82712301 -11.875 283.125 C-17.1536539 278.23258906 -20.52374889 274.2261337 -20.83984375 266.78125 C-20.76716476 259.96507843 -18.18157096 255.14819817 -15 249.25 C8.59173337 202.84209446 15.62691528 147.71359958 5.5625 96.75 C5.38589844 95.83009277 5.20929687 94.91018555 5.02734375 93.96240234 C0.96713107 73.40945538 -6.65729597 53.86537154 -15.4921875 34.9296875 C-15.82250977 34.21981689 -16.15283203 33.50994629 -16.49316406 32.77856445 C-17.1057086 31.46273391 -17.7220232 30.14864933 -18.34277344 28.83666992 C-20.84698586 23.34363084 -21.33419826 18.69382849 -20.4375 12.75 C-18.0994552 6.51521387 -14.37598856 3.44931298 -8.4375 0.75 C-5.47092268 -0.18901742 -3.09052206 -0.32137144 0 0 Z " fill="#FDFDFD" transform="translate(676.4375,358.25)"/>
<path d="M0 0 C13.62693469 13.02129314 21.06527296 36.81716652 21.98950195 55.20996094 C22.48244034 85.06906532 20.23370799 117.37468176 -1.1875 140.6875 C-5.12733686 144.29901712 -9.3200097 144.20045391 -14.46484375 144.02734375 C-18.79402681 143.48697226 -20.77042227 142.4769512 -24.1875 139.6875 C-27.42238903 135.33580405 -28.6505759 131.33207824 -28.53295898 125.84667969 C-27.88435177 121.79277 -25.65093379 118.6173879 -23.5 115.1875 C-11.86718271 95.56595451 -8.82332833 71.22169418 -12.90625 48.765625 C-13.81451471 45.29370991 -14.87872086 42.02699774 -16.1875 38.6875 C-16.60773437 37.51316406 -17.02796875 36.33882813 -17.4609375 35.12890625 C-19.03988822 30.83703111 -20.65253387 26.69153064 -22.8046875 22.65234375 C-24.9880691 17.97102557 -25.07402996 13.74215063 -24.1875 8.6875 C-22.21361211 4.61471132 -19.69661672 1.69357781 -15.9375 -0.8125 C-10.3539277 -1.82769496 -5.31737704 -2.18950819 0 0 Z " fill="#FDFDFD" transform="translate(551.1875,431.3125)"/>
</svg>
